C:\Users\Nicos\Documents\OpenSimProjects\SprintingProject\Study1\PredictiveResults\IC_pred_Sprinting_optimum_27-October-2023__11-55-39_p02_maxVel_01___IKTD_Minus_2_GRF.mot
version=1
nRows=8
nColumns=127
inDegrees=yes
endheader
time	ground_force_vx	ground_force_vy	ground_force_vz	ground_force_px	ground_force_py	ground_force_pz	ground_torque_x	ground_torque_y	ground_torque_z	1_ground_force_vx	1_ground_force_vy	1_ground_force_vz	1_ground_force_px	1_ground_force_py	1_ground_force_pz	1_ground_torque_x	1_ground_torque_y	1_ground_torque_z	2_ground_force_vx	2_ground_force_vy	2_ground_force_vz	2_ground_force_px	2_ground_force_py	2_ground_force_pz	2_ground_torque_x	2_ground_torque_y	2_ground_torque_z	3_ground_force_vx	3_ground_force_vy	3_ground_force_vz	3_ground_force_px	3_ground_force_py	3_ground_force_pz	3_ground_torque_x	3_ground_torque_y	3_ground_torque_z	4_ground_force_vx	4_ground_force_vy	4_ground_force_vz	4_ground_force_px	4_ground_force_py	4_ground_force_pz	4_ground_torque_x	4_ground_torque_y	4_ground_torque_z	5_ground_force_vx	5_ground_force_vy	5_ground_force_vz	5_ground_force_px	5_ground_force_py	5_ground_force_pz	5_ground_torque_x	5_ground_torque_y	5_ground_torque_z	6_ground_force_vx	6_ground_force_vy	6_ground_force_vz	6_ground_force_px	6_ground_force_py	6_ground_force_pz	6_ground_torque_x	6_ground_torque_y	6_ground_torque_z	7_ground_force_vx	7_ground_force_vy	7_ground_force_vz	7_ground_force_px	7_ground_force_py	7_ground_force_pz	7_ground_torque_x	7_ground_torque_y	7_ground_torque_z	8_ground_force_vx	8_ground_force_vy	8_ground_force_vz	8_ground_force_px	8_ground_force_py	8_ground_force_pz	8_ground_torque_x	8_ground_torque_y	8_ground_torque_z	9_ground_force_vx	9_ground_force_vy	9_ground_force_vz	9_ground_force_px	9_ground_force_py	9_ground_force_pz	9_ground_torque_x	9_ground_torque_y	9_ground_torque_z	10_ground_force_vx	10_ground_force_vy	10_ground_force_vz	10_ground_force_px	10_ground_force_py	10_ground_force_pz	10_ground_torque_x	10_ground_torque_y	10_ground_torque_z	11_ground_force_vx	11_ground_force_vy	11_ground_force_vz	11_ground_force_px	11_ground_force_py	11_ground_force_pz	11_ground_torque_x	11_ground_torque_y	11_ground_torque_z	12_ground_force_vx	12_ground_force_vy	12_ground_force_vz	12_ground_force_px	12_ground_force_py	12_ground_force_pz	12_ground_torque_x	12_ground_torque_y	12_ground_torque_z	13_ground_force_vx	13_ground_force_vy	13_ground_force_vz	13_ground_force_px	13_ground_force_py	13_ground_force_pz	13_ground_torque_x	13_ground_torque_y	13_ground_torque_z
0.106738	357.617386	815.454108	-106.795198	0.410765	-0.018743	0.460282	0.000000	0.000000	0.000000	136.725624	332.855329	29.825731	0.366519	-0.011177	0.477030	0.000000	0.000000	0.000000	48.683966	201.918276	36.553241	0.335462	-0.008657	0.464048	0.000000	0.000000	0.000000	96.474750	322.448374	-19.208596	0.340035	-0.011827	0.442709	0.000000	0.000000	0.000000	-0.002814	0.008334	0.002116	0.252411	0.008075	0.484233	0.000000	0.000000	0.000000	-20.847296	78.275576	16.823422	0.307713	-0.004736	0.455772	0.000000	0.000000	0.000000	-0.000130	0.000309	0.000092	0.196717	0.010948	0.422668	0.000000	0.000000	0.000000	-0.000000	0.000000	-0.000000	0.477702	0.177311	0.106917	0.000000	0.000000	0.000000	-0.000000	0.000000	-0.000000	0.467763	0.200390	0.091492	0.000000	0.000000	0.000000	-0.000000	0.000000	-0.000000	0.452124	0.213613	0.102456	0.000000	0.000000	0.000000	-0.000000	0.000000	-0.000000	0.444661	0.208968	0.121808	0.000000	0.000000	0.000000	-0.000000	0.000000	-0.000000	0.433144	0.257611	0.084528	0.000000	0.000000	0.000000	-0.000000	0.000000	-0.000000	0.439465	0.226664	0.110103	0.000000	0.000000	0.000000	-0.000000	0.000000	-0.000000	0.388830	0.278866	0.140690	0.000000	0.000000	0.000000
0.108783	390.337156	825.589351	-95.177883	0.409700	-0.019101	0.460606	0.000000	0.000000	0.000000	123.108360	288.097957	27.112429	0.366233	-0.010305	0.476988	0.000000	0.000000	0.000000	30.416645	136.847472	28.778560	0.336056	-0.006750	0.464056	0.000000	0.000000	0.000000	74.534007	244.701100	11.139990	0.340445	-0.010008	0.442731	0.000000	0.000000	0.000000	-0.000045	0.000121	0.000030	0.254667	0.012035	0.483781	0.000000	0.000000	0.000000	-7.495388	27.022920	5.756902	0.308794	-0.002124	0.455618	0.000000	0.000000	0.000000	-0.000000	0.000001	0.000000	0.199748	0.016380	0.421866	0.000000	0.000000	0.000000	-0.000000	0.000000	-0.000000	0.519310	0.174512	0.107335	0.000000	0.000000	0.000000	-0.000000	0.000000	-0.000000	0.507826	0.197334	0.091461	0.000000	0.000000	0.000000	-0.000000	0.000000	-0.000000	0.490627	0.210357	0.102279	0.000000	0.000000	0.000000	-0.000000	0.000000	-0.000000	0.483336	0.205643	0.121629	0.000000	0.000000	0.000000	-0.000000	0.000000	-0.000000	0.469031	0.253996	0.083815	0.000000	0.000000	0.000000	-0.000000	0.000000	-0.000000	0.477114	0.223221	0.109723	0.000000	0.000000	0.000000	-0.000000	0.000000	-0.000000	0.423063	0.274679	0.139500	0.000000	0.000000	0.000000
0.110265	414.049020	826.259858	-79.590246	0.408782	-0.019264	0.460824	0.000000	0.000000	0.000000	111.054701	252.563655	26.610008	0.366013	-0.009539	0.476942	0.000000	0.000000	0.000000	17.416572	93.246642	22.887316	0.336578	-0.005224	0.464056	0.000000	0.000000	0.000000	55.025628	189.976546	21.214939	0.340820	-0.008544	0.442740	0.000000	0.000000	0.000000	-0.000002	0.000004	0.000001	0.256618	0.015119	0.483445	0.000000	0.000000	0.000000	-1.954647	6.768568	1.411923	0.309743	-0.000061	0.455498	0.000000	0.000000	0.000000	-0.000000	0.000000	0.000000	0.202399	0.020589	0.421270	0.000000	0.000000	0.000000	-0.000000	0.000000	-0.000000	0.549614	0.172474	0.107750	0.000000	0.000000	0.000000	-0.000000	0.000000	-0.000000	0.537011	0.195090	0.091547	0.000000	0.000000	0.000000	-0.000000	0.000000	-0.000000	0.518706	0.207941	0.102245	0.000000	0.000000	0.000000	-0.000000	0.000000	-0.000000	0.511551	0.203178	0.121598	0.000000	0.000000	0.000000	-0.000000	0.000000	-0.000000	0.495192	0.251288	0.083379	0.000000	0.000000	0.000000	-0.000000	0.000000	-0.000000	0.504575	0.220660	0.109541	0.000000	0.000000	0.000000	-0.000000	0.000000	-0.000000	0.448052	0.271536	0.138725	0.000000	0.000000	0.000000
0.110913	427.052562	825.460550	-71.269182	0.408339	-0.019309	0.460908	0.000000	0.000000	0.000000	106.012933	236.496850	27.503836	0.365914	-0.009169	0.476912	0.000000	0.000000	0.000000	9.003179	75.517319	21.356297	0.336839	-0.004517	0.464052	0.000000	0.000000	0.000000	46.844099	166.673470	21.219996	0.341011	-0.007866	0.442740	0.000000	0.000000	0.000000	-0.000000	0.000001	0.000000	0.257566	0.016520	0.483297	0.000000	0.000000	0.000000	-1.230401	4.053668	0.788899	0.310209	0.000885	0.455444	0.000000	0.000000	0.000000	-0.000000	0.000000	0.000000	0.203690	0.022495	0.421010	0.000000	0.000000	0.000000	-0.000000	0.000000	-0.000000	0.562883	0.171583	0.107959	0.000000	0.000000	0.000000	-0.000000	0.000000	-0.000000	0.549794	0.194103	0.091612	0.000000	0.000000	0.000000	-0.000000	0.000000	-0.000000	0.531014	0.206873	0.102255	0.000000	0.000000	0.000000	-0.000000	0.000000	-0.000000	0.523922	0.202089	0.121612	0.000000	0.000000	0.000000	-0.000000	0.000000	-0.000000	0.506658	0.250084	0.083212	0.000000	0.000000	0.000000	-0.000000	0.000000	-0.000000	0.516614	0.219525	0.109487	0.000000	0.000000	0.000000	-0.000000	0.000000	-0.000000	0.459016	0.270136	0.138413	0.000000	0.000000	0.000000
0.112957	464.688275	813.034629	-44.547789	0.406696	-0.019353	0.461143	0.000000	0.000000	0.000000	87.601779	183.325702	27.647264	0.365541	-0.007852	0.476775	0.000000	0.000000	0.000000	-7.436348	27.629191	4.140843	0.337815	-0.002110	0.464062	0.000000	0.000000	0.000000	4.235213	97.715410	26.096041	0.341747	-0.005549	0.442762	0.000000	0.000000	0.000000	-0.000000	0.000000	0.000000	0.260980	0.021171	0.482854	0.000000	0.000000	0.000000	-0.147414	0.423958	0.061217	0.311921	0.004067	0.455293	0.000000	0.000000	0.000000	-0.000000	0.000000	0.000000	0.208346	0.028774	0.420216	0.000000	0.000000	0.000000	-0.000000	0.000000	-0.000000	0.604927	0.168767	0.108714	0.000000	0.000000	0.000000	-0.000000	0.000000	-0.000000	0.590315	0.190970	0.091922	0.000000	0.000000	0.000000	-0.000000	0.000000	-0.000000	0.570085	0.203454	0.102385	0.000000	0.000000	0.000000	-0.000000	0.000000	-0.000000	0.563205	0.198607	0.121754	0.000000	0.000000	0.000000	-0.000000	0.000000	-0.000000	0.543064	0.246204	0.082781	0.000000	0.000000	0.000000	-0.000000	0.000000	-0.000000	0.554843	0.215886	0.109416	0.000000	0.000000	0.000000	-0.000000	0.000000	-0.000000	0.493875	0.265615	0.137538	0.000000	0.000000	0.000000
0.114440	477.939964	790.914697	-14.305378	0.405306	-0.019253	0.461243	0.000000	0.000000	0.000000	69.972345	143.175703	27.538994	0.365254	-0.006732	0.476607	0.000000	0.000000	0.000000	-2.376228	7.555274	0.615495	0.338716	-0.000189	0.464071	0.000000	0.000000	0.000000	-16.653516	54.483048	4.143711	0.342454	-0.003694	0.442779	0.000000	0.000000	0.000000	-0.000000	0.000000	0.000000	0.263901	0.024740	0.482555	0.000000	0.000000	0.000000	-0.015160	0.039900	0.004836	0.313436	0.006557	0.455192	0.000000	0.000000	0.000000	-0.000000	0.000000	0.000000	0.212314	0.033543	0.419675	0.000000	0.000000	0.000000	-0.000000	0.000000	-0.000000	0.635498	0.166731	0.109325	0.000000	0.000000	0.000000	-0.000000	0.000000	-0.000000	0.619802	0.188689	0.092228	0.000000	0.000000	0.000000	-0.000000	0.000000	-0.000000	0.598578	0.200943	0.102557	0.000000	0.000000	0.000000	-0.000000	0.000000	-0.000000	0.591861	0.196050	0.121937	0.000000	0.000000	0.000000	-0.000000	0.000000	-0.000000	0.569629	0.243331	0.082560	0.000000	0.000000	0.000000	-0.000000	0.000000	-0.000000	0.582734	0.213205	0.109449	0.000000	0.000000	0.000000	-0.000000	0.000000	-0.000000	0.519358	0.262255	0.137015	0.000000	0.000000	0.000000
0.115087	471.110467	775.219521	-4.984730	0.404664	-0.019160	0.461261	0.000000	0.000000	0.000000	60.532823	125.310665	25.524803	0.365143	-0.006192	0.476511	0.000000	0.000000	0.000000	-1.492016	4.574927	0.333788	0.339173	0.000697	0.464072	0.000000	0.000000	0.000000	-12.076412	38.214516	2.639714	0.342821	-0.002835	0.442782	0.000000	0.000000	0.000000	-0.000000	0.000000	0.000000	0.265307	0.026346	0.482430	0.000000	0.000000	0.000000	-0.004987	0.012637	0.001431	0.314182	0.007692	0.455148	0.000000	0.000000	0.000000	-0.000000	0.000000	0.000000	0.214214	0.035675	0.419450	0.000000	0.000000	0.000000	-0.000000	0.000000	-0.000000	0.648871	0.165843	0.109603	0.000000	0.000000	0.000000	-0.000000	0.000000	-0.000000	0.632708	0.187691	0.092379	0.000000	0.000000	0.000000	-0.000000	0.000000	-0.000000	0.611067	0.199840	0.102650	0.000000	0.000000	0.000000	-0.000000	0.000000	-0.000000	0.604424	0.194927	0.122036	0.000000	0.000000	0.000000	-0.000000	0.000000	-0.000000	0.581279	0.242062	0.082487	0.000000	0.000000	0.000000	-0.000000	0.000000	-0.000000	0.594963	0.212025	0.109484	0.000000	0.000000	0.000000	-0.000000	0.000000	-0.000000	0.530547	0.260768	0.136817	0.000000	0.000000	0.000000
0.117132	442.825396	712.289966	19.771111	0.402611	-0.018622	0.461245	0.000000	0.000000	0.000000	33.329730	71.100860	16.691129	0.364947	-0.004252	0.476168	0.000000	0.000000	0.000000	-0.216561	0.609049	0.035601	0.340898	0.003683	0.464068	0.000000	0.000000	0.000000	-2.111503	6.175653	0.359395	0.344238	0.000067	0.442784	0.000000	0.000000	0.000000	-0.000000	0.000000	0.000000	0.270294	0.031594	0.482067	0.000000	0.000000	0.000000	-0.000101	0.000233	0.000022	0.316902	0.011464	0.455014	0.000000	0.000000	0.000000	-0.000000	0.000000	0.000000	0.220917	0.042590	0.418795	0.000000	0.000000	0.000000	-0.000000	0.000000	-0.000000	0.691207	0.163048	0.110501	0.000000	0.000000	0.000000	-0.000000	0.000000	-0.000000	0.673600	0.184541	0.092908	0.000000	0.000000	0.000000	-0.000000	0.000000	-0.000000	0.650717	0.196335	0.103003	0.000000	0.000000	0.000000	-0.000000	0.000000	-0.000000	0.644314	0.191359	0.122405	0.000000	0.000000	0.000000	-0.000000	0.000000	-0.000000	0.618296	0.238010	0.082348	0.000000	0.000000	0.000000	-0.000000	0.000000	-0.000000	0.633805	0.208268	0.109664	0.000000	0.000000	0.000000	-0.000000	0.000000	-0.000000	0.566154	0.256001	0.136308	0.000000	0.000000	0.000000
